<svg xmlns="http://www.w3.org/2000/svg" xmlns:xlink="http://www.w3.org/1999/xlink" width="1000" zoomAndPan="magnify" viewBox="0 0 750 749.999995" height="1000" preserveAspectRatio="xMidYMid meet" version="1.0"><defs><g/></defs><g fill="#ffffff" fill-opacity="1"><g transform="translate(231.558916, 446.624998)"><g><path d="M 79.9375 -39.6875 L 110.828125 -150.796875 L 152.78125 -150.796875 L 99.78125 1.984375 C 94.675781 16.347656 89.953125 28.253906 85.609375 37.703125 C 82.960938 43.179688 80.078125 47.570312 76.953125 50.875 C 73.835938 54.1875 69.679688 56.644531 64.484375 58.25 C 59.285156 59.851562 52.34375 60.65625 43.65625 60.65625 C 40.4375 60.65625 34.101562 60.46875 24.65625 60.09375 L 24.65625 28.34375 L 34.578125 28.90625 C 42.328125 28.90625 47.804688 27.25 51.015625 23.9375 C 54.234375 20.632812 56.691406 14.734375 58.390625 6.234375 L 2.828125 -150.796875 L 47.046875 -150.796875 L 79.359375 -39.6875 Z M 79.9375 -39.6875 "/></g></g></g><g fill="#ffffff" fill-opacity="1"><g transform="translate(360.813918, 446.624998)"><g><path d="M 149.375 -5.953125 L 149.375 0 L 106.578125 0 C 104.304688 -6.613281 103.078125 -12.566406 102.890625 -17.859375 C 95.710938 -10.109375 88.25 -4.53125 80.5 -1.125 C 72.75 2.269531 63.960938 3.96875 54.140625 3.96875 C 40.347656 3.96875 29.242188 0 20.828125 -7.9375 C 12.421875 -15.875 8.21875 -26.550781 8.21875 -39.96875 C 8.21875 -52.625 11.664062 -63.15625 18.5625 -71.5625 C 25.457031 -79.976562 37.789062 -85.695312 55.5625 -88.71875 L 83.90625 -92.96875 C 91.082031 -94.101562 95.851562 -95.519531 98.21875 -97.21875 C 100.582031 -98.925781 101.765625 -101.765625 101.765625 -105.734375 C 101.765625 -111.398438 99.734375 -115.695312 95.671875 -118.625 C 91.609375 -121.550781 84.945312 -123.015625 75.6875 -123.015625 C 60.757812 -123.015625 52.632812 -116.023438 51.3125 -102.046875 L 13.03125 -102.046875 C 14.550781 -119.242188 20.363281 -132.328125 30.46875 -141.296875 C 40.582031 -150.273438 56.878906 -154.765625 79.359375 -154.765625 C 98.640625 -154.765625 113.664062 -150.984375 124.4375 -143.421875 C 135.207031 -135.867188 140.59375 -125.476562 140.59375 -112.25 L 140.59375 -28.0625 C 140.59375 -21.070312 141.300781 -15.921875 142.71875 -12.609375 C 144.132812 -9.304688 146.351562 -7.085938 149.375 -5.953125 Z M 101.765625 -54.703125 L 101.765625 -73.421875 C 98.359375 -71.335938 94.671875 -69.679688 90.703125 -68.453125 C 86.734375 -67.222656 80.972656 -66.039062 73.421875 -64.90625 C 64.910156 -63.769531 58.53125 -61.453125 54.28125 -57.953125 C 50.03125 -54.460938 47.90625 -49.316406 47.90625 -42.515625 C 47.90625 -37.035156 49.601562 -32.640625 53 -29.328125 C 56.40625 -26.023438 60.847656 -24.375 66.328125 -24.375 C 72.179688 -24.375 77.847656 -25.648438 83.328125 -28.203125 C 88.816406 -30.753906 93.257812 -34.34375 96.65625 -38.96875 C 100.0625 -43.601562 101.765625 -48.847656 101.765625 -54.703125 Z M 101.765625 -54.703125 "/></g></g></g></svg>